<svg xmlns="http://www.w3.org/2000/svg" xmlns:xlink="http://www.w3.org/1999/xlink" viewBox="0 0 123 123"><defs><style>.cls-1{isolation:isolate;}.cls-2{fill:red;}.cls-3{opacity:0.9;fill:url(#radial-gradient);}.cls-10,.cls-3{mix-blend-mode:multiply;}.cls-4{fill:#561770;}.cls-5,.cls-8{fill:#fff;}.cls-14,.cls-18,.cls-5{opacity:0.7;mix-blend-mode:overlay;}.cls-6{fill:#a441d1;}.cls-7{fill:url(#linear-gradient);}.cls-9{fill:url(#linear-gradient-2);}.cls-10{opacity:0.3;}.cls-11{fill:url(#linear-gradient-3);}.cls-12{fill:url(#linear-gradient-4);}.cls-13{fill:url(#linear-gradient-5);}.cls-14{fill:url(#linear-gradient-6);}.cls-15{fill:url(#linear-gradient-7);}.cls-16{fill:url(#linear-gradient-8);}.cls-17{fill:url(#linear-gradient-9);}.cls-18{fill:url(#linear-gradient-10);}.cls-19{fill:url(#linear-gradient-11);}.cls-20{fill:url(#linear-gradient-12);}.cls-21{fill:url(#linear-gradient-13);}.cls-22{fill:url(#linear-gradient-14);}.cls-23{fill:url(#linear-gradient-15);}.cls-24{fill:url(#linear-gradient-16);}.cls-25{fill:url(#linear-gradient-17);}.cls-26{fill:url(#linear-gradient-18);}</style><radialGradient id="radial-gradient" cx="702.39" cy="-34.6" r="17.85" gradientTransform="matrix(3.14, 0.01, 0, 0.34, -2140.1, 108.28)" gradientUnits="userSpaceOnUse"><stop offset="0.03" stop-color="#2f68ac"/><stop offset="0.48" stop-color="#2977d6" stop-opacity="0.5"/><stop offset="0.83" stop-color="#2681f3" stop-opacity="0.14"/><stop offset="1" stop-color="#2485ff" stop-opacity="0"/></radialGradient><linearGradient id="linear-gradient" x1="17.63" y1="75.94" x2="105.15" y2="75.94" gradientUnits="userSpaceOnUse"><stop offset="0" stop-color="#d3daeb"/><stop offset="0.41" stop-color="#c2cbe2"/><stop offset="0.99" stop-color="#a3b1d1"/></linearGradient><linearGradient id="linear-gradient-2" x1="15.73" y1="72.29" x2="103.01" y2="72.29" gradientUnits="userSpaceOnUse"><stop offset="0.01" stop-color="#fff"/><stop offset="0.37" stop-color="#fcfcff"/><stop offset="0.69" stop-color="#f1f5fe"/><stop offset="0.99" stop-color="#dfe8fd"/></linearGradient><linearGradient id="linear-gradient-3" x1="85.11" y1="26.64" x2="87.98" y2="21.32" gradientUnits="userSpaceOnUse"><stop offset="0" stop-color="#ff9c40"/><stop offset="1" stop-color="#cf4100"/></linearGradient><linearGradient id="linear-gradient-4" x1="83.93" y1="19.04" x2="85.45" y2="33.65" gradientUnits="userSpaceOnUse"><stop offset="0" stop-color="#ffd540"/><stop offset="1" stop-color="#ff7b00"/></linearGradient><linearGradient id="linear-gradient-5" x1="83.26" y1="24.31" x2="92.71" y2="24.31" gradientUnits="userSpaceOnUse"><stop offset="0" stop-color="#ff9c40"/><stop offset="1" stop-color="#ff6f00"/></linearGradient><linearGradient id="linear-gradient-6" x1="83.08" y1="24.23" x2="89.41" y2="24.23" gradientUnits="userSpaceOnUse"><stop offset="0" stop-color="#fff"/><stop offset="1" stop-color="#fff" stop-opacity="0.5"/></linearGradient><linearGradient id="linear-gradient-7" x1="45.34" y1="24.27" x2="48.21" y2="18.95" xlink:href="#linear-gradient-3"/><linearGradient id="linear-gradient-8" x1="44.16" y1="16.67" x2="45.68" y2="31.28" xlink:href="#linear-gradient-4"/><linearGradient id="linear-gradient-9" x1="43.49" y1="21.95" x2="52.94" y2="21.95" xlink:href="#linear-gradient-5"/><linearGradient id="linear-gradient-10" x1="43.31" y1="21.86" x2="49.64" y2="21.86" xlink:href="#linear-gradient-6"/><linearGradient id="linear-gradient-11" x1="159.87" y1="111.1" x2="165.95" y2="110.91" gradientTransform="translate(-140.39 -77.4) rotate(5.18)" xlink:href="#linear-gradient-5"/><linearGradient id="linear-gradient-12" x1="182.59" y1="101.58" x2="174.74" y2="110.3" gradientTransform="translate(-140.39 -77.4) rotate(5.18)" xlink:href="#linear-gradient-5"/><linearGradient id="linear-gradient-13" x1="180.82" y1="110.53" x2="160.85" y2="123.22" gradientTransform="translate(-140.39 -77.4) rotate(5.18)" xlink:href="#linear-gradient-5"/><linearGradient id="linear-gradient-14" x1="168.53" y1="101.55" x2="180.6" y2="128.55" gradientTransform="translate(-140.39 -77.4) rotate(5.18)" xlink:href="#linear-gradient-4"/><linearGradient id="linear-gradient-15" x1="2017.35" y1="88.84" x2="2021.31" y2="88.71" gradientTransform="matrix(-1, 0, 0, 1, 2121.62, 0)" xlink:href="#linear-gradient-5"/><linearGradient id="linear-gradient-16" x1="2032.16" y1="82.64" x2="2027.04" y2="88.31" gradientTransform="matrix(-1, 0, 0, 1, 2121.62, 0)" xlink:href="#linear-gradient-5"/><linearGradient id="linear-gradient-17" x1="2031" y1="88.46" x2="2017.99" y2="96.73" gradientTransform="matrix(-1, 0, 0, 1, 2121.62, 0)" xlink:href="#linear-gradient-5"/><linearGradient id="linear-gradient-18" x1="2023" y1="82.62" x2="2030.86" y2="100.21" gradientTransform="matrix(-1, 0, 0, 1, 2121.62, 0)" xlink:href="#linear-gradient-4"/></defs><title>DISC LOGO</title><g class="cls-1"><g id="Layer_1" data-name="Layer 1"><rect class="cls-2" width="123" height="123" rx="9.86"/><path class="cls-3" d="M121.32,102.9c0,3.76-25.33,6.73-56.55,6.65s-56.53-3.21-56.52-7,25.33-6.74,56.56-6.65S121.33,99.14,121.32,102.9Z"/><path class="cls-4" d="M104.65,30.31l-2.14-2.43a7.66,7.66,0,0,1,1.85,5.87L103,47.17l2.14,2.43,1.35-13.42A7.66,7.66,0,0,0,104.65,30.31Z"/><path class="cls-5" d="M97.4,25.51A7.61,7.61,0,0,1,104.58,34l-1.36,13.41L20.79,42.47l1.35-13.41a8.41,8.41,0,0,1,8.79-7.49Z"/><path class="cls-6" d="M97.19,25.31a7.6,7.6,0,0,1,7.17,8.44L103,47.17,20.58,42.28l1.35-13.42a8.41,8.41,0,0,1,8.78-7.49Z"/><path class="cls-7" d="M103,47.17l-4.8,47.62a8.41,8.41,0,0,1-8.78,7.49L23,98.34a7.63,7.63,0,0,1-5.32-2.57l2.13,2.42a7.6,7.6,0,0,0,5.33,2.57l66.48,3.95a8.41,8.41,0,0,0,8.78-7.49l4.8-47.62Z"/><path class="cls-8" d="M103.19,47.37l-4.8,47.69a8.41,8.41,0,0,1-8.78,7.49l-66.47-4A7.61,7.61,0,0,1,16,90.17l4.8-47.63L103,47.17Z"/><path class="cls-9" d="M103,47.17l-4.8,47.62a8.41,8.41,0,0,1-8.78,7.49L23,98.34a7.61,7.61,0,0,1-7.18-8.44l4.81-47.62Z"/><g class="cls-10"><path d="M40.06,60.33c.47-7.61,5.7-11.57,12.53-9.45a12,12,0,0,1,2.24,1c5,2.77,4.78,10.24,2.82,14.58s-7.43,6.12-12.16,4.2C41.49,69.08,39.73,65.72,40.06,60.33Zm5.49.7a4.44,4.44,0,0,0,.09,2.29c.6,1.11,1.61,2.5,2.67,2.74A5,5,0,0,0,52.23,65c1.62-1.47,1.64-6.48.3-8.21a4.11,4.11,0,0,0-2.19-1.39C47.4,54.75,45.88,56.42,45.55,61Z"/><path d="M61.39,87.17c.42-6.65,4-10.33,9.53-10.16,5.9.19,9.46,4.12,9.25,10-.14,4-.74,7.73-4.68,9.78a9.65,9.65,0,0,1-10.2-.37C61.75,94.2,61,90.78,61.39,87.17Zm13.22.08A4.25,4.25,0,0,0,74.49,85a6.41,6.41,0,0,0-2.76-2.72c-1.49-.62-3.57-.4-4,1.39a22.86,22.86,0,0,0-.34,7.43c.07.76,1.7,1.75,2.75,2C72.94,93.58,74.3,91.85,74.61,87.25Z"/><path d="M70.35,55.51l4.07,2.75L49.82,92.88l-4.09-2.71Z"/></g><path class="cls-2" d="M39.06,59.33c.47-7.61,5.7-11.57,12.53-9.45a12,12,0,0,1,2.24,1c5,2.77,4.78,10.24,2.82,14.58s-7.43,6.12-12.16,4.2C40.49,68.08,38.73,64.72,39.06,59.33Zm5.49.7a4.44,4.44,0,0,0,.09,2.29c.6,1.11,1.61,2.5,2.67,2.74A5,5,0,0,0,51.23,64c1.62-1.47,1.64-6.48.3-8.21a4.11,4.11,0,0,0-2.19-1.39C46.4,53.75,44.88,55.42,44.55,60Z"/><path class="cls-2" d="M60.39,86.17c.42-6.65,4-10.33,9.53-10.16,5.9.19,9.46,4.12,9.25,10-.14,4-.74,7.73-4.68,9.78a9.65,9.65,0,0,1-10.2-.37C60.75,93.2,60,89.78,60.39,86.17Zm13.22.08A4.25,4.25,0,0,0,73.49,84a6.41,6.41,0,0,0-2.76-2.72c-1.49-.62-3.57-.4-4,1.39a22.86,22.86,0,0,0-.34,7.43c.07.76,1.7,1.75,2.75,2C71.94,92.58,73.3,90.85,73.61,86.25Z"/><path class="cls-2" d="M69.35,54.51l4.07,2.75L48.82,91.88l-4.09-2.71Z"/><path class="cls-11" d="M86.15,22.23a10.74,10.74,0,0,1,.08,2.43l4.22.25a11.17,11.17,0,0,0-.1-2.12,3.48,3.48,0,0,0-1.21-2.5.93.93,0,0,0-.41-.15l-4.2-.57a1.07,1.07,0,0,1,.41.15A3.52,3.52,0,0,1,86.15,22.23Z"/><path class="cls-12" d="M84.44,33.57,80.24,33a.62.62,0,0,1-.19-.07,1.29,1.29,0,0,1-.48-.8,17.51,17.51,0,0,1-.51-4.38,25.53,25.53,0,0,1,.54-5.11,16.06,16.06,0,0,1,2.79-6.58,3.32,3.32,0,0,1,2.82-1.56l4.2.56a3.32,3.32,0,0,0-2.82,1.56,15.93,15.93,0,0,0-2.78,6.58,24.87,24.87,0,0,0-.55,5.12,17.42,17.42,0,0,0,.51,4.37,1.29,1.29,0,0,0,.48.8A.44.44,0,0,0,84.44,33.57Z"/><path class="cls-13" d="M85.51,27.07a12.6,12.6,0,0,1,.29-2.67A8.36,8.36,0,0,1,87.26,21c.6-.75,1.27-1,1.88-.66a3.48,3.48,0,0,1,1.21,2.5,11.17,11.17,0,0,1,.1,2.12l2.18.13a21.16,21.16,0,0,0-.13-4.89c-.35-2.32-1.16-4.11-2.31-4.8s-2.45-.14-3.6,1.28a15.93,15.93,0,0,0-2.78,6.58,24.87,24.87,0,0,0-.55,5.12,17.42,17.42,0,0,0,.51,4.37,1.29,1.29,0,0,0,.48.8c.31.19.69,0,1-.55a5.28,5.28,0,0,0,.5-3.58A8.91,8.91,0,0,1,85.51,27.07Z"/><path class="cls-14" d="M89.41,15.07,88.74,15a3.75,3.75,0,0,0-2.33,1.55,16,16,0,0,0-2.78,6.59,24.78,24.78,0,0,0-.55,5.11,17.42,17.42,0,0,0,.51,4.37,1.29,1.29,0,0,0,.48.8l.14.06a1.36,1.36,0,0,1-.44-.77,17.42,17.42,0,0,1-.51-4.37,24.87,24.87,0,0,1,.55-5.12,15.93,15.93,0,0,1,2.78-6.58A3.32,3.32,0,0,1,89.41,15.07Z"/><path class="cls-15" d="M46.38,19.86a11.35,11.35,0,0,1,.08,2.43l4.21.25a10.43,10.43,0,0,0-.09-2.12,3.48,3.48,0,0,0-1.21-2.5.93.93,0,0,0-.41-.15l-4.21-.56a1,1,0,0,1,.42.14A3.52,3.52,0,0,1,46.38,19.86Z"/><path class="cls-16" d="M44.67,31.2l-4.21-.56a.45.45,0,0,1-.18-.07,1.29,1.29,0,0,1-.48-.8,17.45,17.45,0,0,1-.51-4.38,24.82,24.82,0,0,1,.54-5.11,15.92,15.92,0,0,1,2.79-6.58,3.31,3.31,0,0,1,2.82-1.56l4.2.57a3.27,3.27,0,0,0-2.82,1.55A16,16,0,0,0,44,20.85,24.68,24.68,0,0,0,43.49,26,17.42,17.42,0,0,0,44,30.33a1.29,1.29,0,0,0,.48.8A.44.44,0,0,0,44.67,31.2Z"/><path class="cls-17" d="M45.74,24.7A13.25,13.25,0,0,1,46,22a8.49,8.49,0,0,1,1.46-3.45c.61-.75,1.28-1,1.89-.66a3.48,3.48,0,0,1,1.21,2.5,10.43,10.43,0,0,1,.09,2.12l2.19.13a21.16,21.16,0,0,0-.13-4.89c-.35-2.32-1.16-4.11-2.31-4.79s-2.45-.15-3.6,1.27A16,16,0,0,0,44,20.85,24.68,24.68,0,0,0,43.49,26,17.42,17.42,0,0,0,44,30.33a1.29,1.29,0,0,0,.48.8c.31.19.69,0,1-.55A5.33,5.33,0,0,0,46,27,8.91,8.91,0,0,1,45.74,24.7Z"/><path class="cls-18" d="M49.64,12.71,49,12.62a3.75,3.75,0,0,0-2.33,1.55,16,16,0,0,0-2.78,6.59,24.78,24.78,0,0,0-.55,5.11,17.42,17.42,0,0,0,.51,4.37,1.26,1.26,0,0,0,.48.8.35.35,0,0,0,.14.06,1.31,1.31,0,0,1-.44-.77A17.42,17.42,0,0,1,43.49,26,24.68,24.68,0,0,1,44,20.85a16,16,0,0,1,2.79-6.59A3.27,3.27,0,0,1,49.64,12.71Z"/><polygon class="cls-19" points="16.3 47.4 17.18 50.78 11.68 48.55 10.8 45.17 16.3 47.4"/><polygon class="cls-20" points="34.59 37.1 35.47 40.49 23.42 49.47 22.54 46.08 34.59 37.1"/><polygon class="cls-21" points="28.04 48.31 28.92 51.7 8.76 61.34 7.88 57.95 28.04 48.31"/><polygon class="cls-5" points="28.12 48.63 7.96 58.27 7.88 57.95 16.41 47.72 10.88 45.46 10.8 45.17 22.57 32.15 34.59 37.1 34.68 37.46 22.66 46.4 28.04 48.31 28.12 48.63"/><polygon class="cls-22" points="28.04 48.31 7.88 57.95 16.3 47.4 10.8 45.17 22.45 31.84 34.59 37.1 22.54 46.08 28.04 48.31"/><polygon class="cls-23" points="99.42 88.22 98.65 90.36 102.35 89.24 103.12 87.1 99.42 88.22"/><polygon class="cls-24" points="88.16 80.47 87.39 82.61 94.68 89.14 95.45 87 88.16 80.47"/><polygon class="cls-25" points="91.75 88.12 90.98 90.27 103.49 97.71 104.26 95.56 91.75 88.12"/><polygon class="cls-5" points="91.68 88.32 104.19 95.77 104.26 95.56 99.33 88.42 103.05 87.28 103.12 87.1 96.25 77.96 88.16 80.47 88.08 80.69 95.35 87.2 91.75 88.12 91.68 88.32"/><polygon class="cls-26" points="91.75 88.12 104.26 95.56 99.42 88.22 103.12 87.1 96.34 77.76 88.16 80.47 95.45 87 91.75 88.12"/></g></g></svg>