<?xml version="1.0" encoding="utf-8"?>
<!-- Generator: Adobe Illustrator 26.0.3, SVG Export Plug-In . SVG Version: 6.00 Build 0)  -->
<svg version="1.1" id="Layer_1" xmlns="http://www.w3.org/2000/svg" xmlns:xlink="http://www.w3.org/1999/xlink" x="0px" y="0px"
	 viewBox="0 0 1080 1080" style="enable-background:new 0 0 1080 1080;" xml:space="preserve">
<style type="text/css">
	.st0{fill:url(#SVGID_1_);}
	.st1{fill:#FFFFFF;}
	.st2{fill:url(#SVGID_00000004547704643595307790000006871514249620238264_);}
	.st3{fill:url(#SVGID_00000125604973216152084550000006333537291474789520_);}
</style>
<g>
	<linearGradient id="SVGID_1_" gradientUnits="userSpaceOnUse" x1="130.3169" y1="130.3169" x2="949.6831" y2="949.6831">
		<stop  offset="0" style="stop-color:#7B1FA1"/>
		<stop  offset="0.1768" style="stop-color:#6B24A0"/>
		<stop  offset="0.5206" style="stop-color:#42339D"/>
		<stop  offset="0.9935" style="stop-color:#014A99"/>
		<stop  offset="1" style="stop-color:#004A99"/>
	</linearGradient>
	<path class="st0" d="M875.95,980.23h-671.9c-57.59,0-104.28-46.69-104.28-104.28v-671.9c0-57.59,46.69-104.28,104.28-104.28h671.9
		c57.59,0,104.28,46.69,104.28,104.28v671.9C980.23,933.54,933.54,980.23,875.95,980.23z"/>
	<g>
		<path class="st1" d="M850.41,335.8L542.61,232.67c-3.7-1.24-7.71-1.23-11.41,0.04L229.48,335.93
			c-16.02,5.48-16.04,28.14-0.03,33.65L529.32,472.7c3.69,1.27,7.7,1.29,11.41,0.05l228.81-76.27v16.89
			c0,20.72,16.8,37.52,37.52,37.52v-66.92l43.32-14.44C866.59,364.14,866.61,341.23,850.41,335.8z"/>
		<path class="st1" d="M730.3,460.79l-163.6,55.1c-21.17,7.13-35.43,26.98-35.43,49.32v121.8l2.55,86.6v67.9
			c0,6.99,9.33,9.36,12.66,3.21l50.43-92.91l156.28-54c14.28-4.94,23.86-18.38,23.86-33.5V494.38
			C777.05,470.14,753.27,453.06,730.3,460.79z"/>
	</g>
</g>
</svg>
